<?xml version="1.0" standalone="no"?>
<!DOCTYPE svg PUBLIC "-//W3C//DTD SVG 20010904//EN"
 "http://www.w3.org/TR/2001/REC-SVG-20010904/DTD/svg10.dtd">
<svg version="1.0" xmlns="http://www.w3.org/2000/svg"
 width="700.000000pt" height="700.000000pt" viewBox="0 0 700.000000 700.000000"
 preserveAspectRatio="xMidYMid meet">
<metadata>
Created by potrace 1.14, written by Peter Selinger 2001-2017
</metadata>
<g transform="translate(0.000000,700.000000) scale(0.100000,-0.100000)"
fill="#000000" stroke="none">
<path d="M2115 4504 c-49 -47 -279 -274 -510 -503 -231 -229 -624 -618 -873
-864 -249 -246 -452 -450 -452 -452 0 -3 114 -5 254 -5 l254 0 493 488 c911
899 970 957 980 960 5 2 9 -206 9 -542 l0 -546 -476 0 -476 0 7 -49 c4 -27 16
-106 28 -177 l22 -129 940 -3 c629 -2 963 1 1010 8 183 28 332 155 385 327 24
77 27 221 6 298 -44 168 -140 252 -367 324 -74 23 -154 52 -178 65 -99 50
-109 184 -18 233 30 17 113 18 1437 18 l1405 0 3 -637 2 -638 180 0 180 0 0
815 0 815 -1623 0 c-1768 0 -1673 3 -1789 -56 -242 -123 -307 -516 -121 -734
54 -63 123 -102 268 -154 233 -84 255 -99 263 -189 4 -47 1 -56 -25 -84 -16
-17 -47 -36 -69 -42 -24 -7 -152 -11 -336 -11 l-298 0 0 775 0 775 -212 0
-213 0 -90 -86z"/>
<path d="M4191 3664 c-216 -58 -371 -260 -371 -484 1 -242 179 -449 423 -491
209 -35 428 81 522 276 69 142 68 294 -1 440 -35 72 -137 179 -210 217 -105
56 -249 73 -363 42z m405 -166 c46 -41 96 -118 118 -181 20 -59 25 -182 9
-198 -25 -25 -41 8 -44 89 -5 96 -41 176 -111 244 -32 31 -46 52 -42 62 9 24
30 19 70 -16z m-63 -137 c49 -54 74 -150 46 -178 -18 -18 -39 -4 -39 26 0 47
-19 94 -51 127 -27 28 -30 36 -19 49 18 22 24 20 63 -24z m-137 -68 c35 -23
54 -64 54 -119 0 -41 -5 -51 -39 -85 -34 -34 -44 -39 -86 -39 -151 0 -197 183
-64 253 39 21 95 17 135 -10z"/>
<path d="M4910 3392 c0 -311 4 -341 57 -447 35 -68 132 -167 202 -204 273
-145 596 -21 712 274 22 57 23 73 27 363 l4 302 -186 0 -186 0 0 -271 c0 -233
-2 -275 -16 -299 -52 -86 -191 -80 -236 10 -16 31 -18 67 -18 298 l0 262 -180
0 -180 0 0 -288z"/>
</g>
</svg>
